# xmcd
#
# Track frame offsets:
#	150
#	11119
#	23390
#	35671
#	48022
#	59190
#	75994
#	87475
#	99062
#	111239
#
# Disc length: 1638 seconds
# Revision: 0
# Processed by: cddbd v1.5.2PL0 Copyright (c) Steve Scherf et al.
# Submitted via: dBpowerAMP V12.0
#
DISCID=6f06640a
DTITLE=Marie Hodson - Walking After Patsy
DYEAR=1900
DGENRE=Country
TTITLE0=Shoes
TTITLE1=Crazy
TTITLE2=Walkin After Midnight
TTITLE3=He Called Me Baby
TTITLE4=South of The Border
TTITLE5=Faded Love
TTITLE6=Crazy Dreams
TTITLE7=Always
TTITLE8=I Fall to Pieces
TTITLE9=Sweet Dreams
EXTD=
EXTT0=
EXTT1=
EXTT2=
EXTT3=
EXTT4=
EXTT5=
EXTT6=
EXTT7=
EXTT8=
EXTT9=
PLAYORDER=
